<svg width="276" height="236" viewBox="0 0 276 236" fill="none" xmlns="http://www.w3.org/2000/svg">
<path fill-rule="evenodd" clip-rule="evenodd" d="M139.422 169.606C139.422 164.868 143.263 161.027 148.001 161.027H197.776C204.577 161.027 211.078 163.04 216.083 166.719C221.087 170.397 225.058 176.181 225.058 183.359C225.058 190.537 221.088 196.321 216.086 200.001C211.081 203.684 204.579 205.7 197.776 205.7H79.506C74.7681 205.7 70.9272 201.859 70.9272 197.121C70.9272 192.383 74.7681 188.542 79.506 188.542H197.776C201.304 188.542 204.154 187.479 205.918 186.181C207.685 184.881 207.901 183.785 207.901 183.359C207.901 182.935 207.687 181.842 205.921 180.544C204.158 179.248 201.307 178.185 197.776 178.185L147.5 176.5C142.762 176.5 139.422 174.344 139.422 169.606Z" fill="#5033C3"/>
<path fill-rule="evenodd" clip-rule="evenodd" d="M217.5 67.154C218.629 62.9346 222.452 60 226.82 60H265.841C271.169 60 275.488 64.3193 275.488 69.6474C275.488 74.9756 271.169 79.2949 265.841 79.2949H234.226L222.969 121.367C221.592 126.514 216.303 129.57 211.156 128.193C206.009 126.816 202.953 121.527 204.33 116.38L217.5 67.154Z" fill="#5033C3"/>
<path d="M108.077 235.364C119.619 235.364 128.977 226.007 128.977 214.464C128.977 202.921 119.619 193.564 108.077 193.564C96.534 193.564 87.1768 202.921 87.1768 214.464C87.1768 226.007 96.534 235.364 108.077 235.364Z" fill="#5033C3"/>
<path d="M211.799 85.8708H67.772C56.9756 85.8708 49.0008 95.0283 51.4423 104.608L63.1763 160.955C64.9419 167.874 71.7087 172.782 79.506 172.782L206.5 181L228.163 104.633C233.5 89 222.621 85.8708 211.799 85.8708Z" fill="#5033C3"/>
<path fill-rule="evenodd" clip-rule="evenodd" d="M173.056 10.0843C171.595 7.52303 168.883 6.31823 166.999 7.39324C165.114 8.46826 164.771 11.416 166.232 13.9772C166.274 14.0497 166.316 14.1211 166.359 14.1913C165.401 14.3879 164.501 15.3245 164.148 16.6148C163.694 18.2754 164.318 19.893 165.542 20.2278C166.766 20.5626 168.127 19.4878 168.581 17.8272C168.706 17.3722 168.749 16.9206 168.721 16.4976C169.928 17.158 171.238 17.2684 172.29 16.6683C173.216 16.1399 173.77 15.1593 173.92 13.9944C174.173 14.1255 174.448 14.2341 174.741 14.3143C176.402 14.7685 178.019 14.1444 178.354 12.9203C178.689 11.6962 177.614 10.3357 175.954 9.88151C174.885 9.58911 173.833 9.74362 173.131 10.2174C173.106 10.1729 173.082 10.1285 173.056 10.0843Z" fill="#5033C3"/>
<path fill-rule="evenodd" clip-rule="evenodd" d="M106.873 18.1176C106.016 18.9914 104.936 19.4493 103.846 19.2805C102.584 19.085 101.589 18.092 101.076 16.7136C100.844 17.0275 100.551 17.3213 100.204 17.5753C98.8149 18.592 97.0811 18.586 96.3317 17.5619C95.5822 16.5378 96.101 14.8834 97.4903 13.8667C98.5933 13.0595 99.9134 12.897 100.786 13.3767C101.246 10.4765 103.343 8.39718 105.481 8.72823C107.589 9.05469 108.95 11.6036 108.567 14.4585C109.393 14.5468 110.282 15.0757 110.92 15.9472C111.936 17.3366 111.93 19.0704 110.906 19.8198C109.882 20.5693 108.228 20.0505 107.211 18.6612C107.082 18.4846 106.969 18.3025 106.873 18.1176Z" fill="#5033C3"/>
<path d="M18.968 96.4608C19.4856 94.3168 22.5352 94.3168 23.0528 96.4608L24.7947 103.677C24.9796 104.443 25.5778 105.041 26.344 105.226L33.56 106.968C35.7041 107.486 35.7041 110.535 33.56 111.053L26.344 112.795C25.5778 112.98 24.9796 113.578 24.7947 114.344L23.0528 121.56C22.5352 123.704 19.4856 123.704 18.968 121.56L17.2261 114.344C17.0411 113.578 16.4429 112.98 15.6767 112.795L8.46073 111.053C6.31671 110.535 6.3167 107.486 8.46073 106.968L15.6767 105.226C16.4429 105.041 17.0411 104.443 17.2261 103.677L18.968 96.4608Z" fill="#5033C3"/>
<path d="M240.968 168.461C241.486 166.317 244.535 166.317 245.053 168.461L246.795 175.677C246.98 176.443 247.578 177.041 248.344 177.226L255.56 178.968C257.704 179.486 257.704 182.535 255.56 183.053L248.344 184.795C247.578 184.98 246.98 185.578 246.795 186.344L245.053 193.56C244.535 195.704 241.486 195.704 240.968 193.56L239.226 186.344C239.041 185.578 238.443 184.98 237.677 184.795L230.461 183.053C228.317 182.535 228.317 179.486 230.461 178.968L237.677 177.226C238.443 177.041 239.041 176.443 239.226 175.677L240.968 168.461Z" fill="#5033C3"/>
<path fill-rule="evenodd" clip-rule="evenodd" d="M49.628 44.987C52.0354 44.987 53.9869 43.0354 53.9869 40.6281C53.9869 38.2207 52.0354 36.2692 49.628 36.2692C47.2207 36.2692 45.2692 38.2207 45.2692 40.6281C45.2692 43.0354 47.2207 44.987 49.628 44.987ZM49.628 48.2561C53.8409 48.2561 57.2561 44.8409 57.2561 40.6281C57.2561 36.4152 53.8409 33.0001 49.628 33.0001C45.4152 33.0001 42 36.4152 42 40.6281C42 44.8409 45.4152 48.2561 49.628 48.2561Z" fill="#5033C3"/>
<path d="M32.0142 157.053C31.6812 155.747 32.8869 154.57 34.1845 154.935L42.943 157.396C44.2406 157.761 44.6568 159.393 43.6922 160.335L37.1815 166.689C36.2169 167.631 34.595 167.175 34.262 165.869L32.0142 157.053Z" fill="#5033C3"/>
<path d="M258.713 127.018C260.019 126.687 261.194 127.894 260.828 129.191L258.356 137.947C257.989 139.244 256.356 139.658 255.416 138.692L249.07 132.173C248.13 131.207 248.588 129.586 249.894 129.255L258.713 127.018Z" fill="#5033C3"/>
<path fill-rule="evenodd" clip-rule="evenodd" d="M230.128 35.6298C232.062 35.6298 233.63 34.062 233.63 32.128C233.63 30.1941 232.062 28.6263 230.128 28.6263C228.194 28.6263 226.626 30.1941 226.626 32.128C226.626 34.062 228.194 35.6298 230.128 35.6298ZM230.128 38.2561C233.512 38.2561 236.256 35.5124 236.256 32.128C236.256 28.7436 233.512 26 230.128 26C226.744 26 224 28.7436 224 32.128C224 35.5124 226.744 38.2561 230.128 38.2561Z" fill="#5033C3"/>
<rect x="45" y="84" width="189" height="13" rx="6.5" fill="#5033C3"/>
<path d="M102.312 44C100.591 50.8852 106.166 65.3525 114.773 66.5C130.697 68.6233 127.773 50 118.273 53.5C106.966 57.6655 118.281 75.4836 133.773 79.5" stroke="#5033C3" stroke-linecap="round" stroke-linejoin="round" stroke-dasharray="4 4"/>
<path d="M181.635 38.1326C191.099 56.553 166.023 76.219 159.081 79.8625" stroke="#5033C3" stroke-linecap="round" stroke-linejoin="round" stroke-dasharray="4 4"/>
<path d="M174.57 235.364C186.113 235.364 195.47 226.007 195.47 214.464C195.47 202.921 186.113 193.564 174.57 193.564C163.027 193.564 153.67 202.921 153.67 214.464C153.67 226.007 163.027 235.364 174.57 235.364Z" fill="#5033C3"/>
<path d="M174.5 225C180.299 225 185 220.299 185 214.5C185 208.701 180.299 204 174.5 204C168.701 204 164 208.701 164 214.5C164 220.299 168.701 225 174.5 225Z" fill="#5033C3"/>
</svg>
